WWE FRIDAY NIGHT SMACKDOWN 9_9_2011 HDTV  IN FLV FORMAT..IT IS THE FULL SHOW . PLEASE SEED AND COMMENT..

SNAPSHOTS:
 
http://bayimg.com/maJpKAADP
 
http://bayimg.com/mAJPlAaDp
 
http://bayimg.com/maJpnAAdp
 
http://bayimg.com/maJpoaaDp


DETAILS ARE:


Video
Format                           : AVC
Format/Info                      : Advanced Video Codec
Format profile                   : Main@L3.0
Format settings, CABAC           : Yes
Format settings, ReFrames        : 3 frames
Format settings, GOP             : M=1, N=56
Codec ID                         : 7
Duration                         : 1h 27mn
Bit rate                         : 749 Kbps
Width                            : 634 pixels
Height                           : 360 pixels
Display aspect ratio             : 16:9
Frame rate mode                  : Constant
Frame rate                       : 29.970 fps
Color space                      : YUV
Chroma subsampling               : 4:2:0
Bit depth                        : 8 bits
Scan type                        : Progressive
Bits/(Pixel*Frame)               : 0.110
Stream size                      : 468 MiB (85%)

Audio
Format                           : AAC
Format/Info                      : Advanced Audio Codec
Format profile                   : LC
Codec ID                         : 10
Duration                         : 1h 27mn
Bit rate                         : 129 Kbps
Channel(s)                       : 2 channels
Channel positions                : Front: L R
Sampling rate                    : 44.1 KHz
Compression mode                 : Lossy
Stream size                      : 80.4 MiB (15%)
